<svg width="232" height="89" viewBox="0 0 232 89" fill="none" xmlns="http://www.w3.org/2000/svg">
    <rect x="44.8344" width="145.178" height="89" fill="white"/>
    <ellipse cx="44.4785" cy="44.5" rx="44.4785" ry="44.5" fill="white"/>
    <path d="M61.2025 25.6318H24.908V56.6126C24.908 66.635 33.0328 74.7598 43.0552 74.7598C53.0777 74.7598 61.2025 66.6351 61.2025 56.6126V25.6318Z" fill="#FED008"/>
    <path d="M37.5762 35.5767V61.4859M49.231 61.4859V35.5767M60.8858 35.5767V25.6318H24.908V59.0478C24.908 67.3321 31.6237 74.0478 39.908 74.0478H48.3238C55.2616 74.0478 60.8858 68.4236 60.8858 61.4859V61.4859M60.8858 35.5767H63.3006C68.8235 35.5767 73.3006 40.0539 73.3006 45.5767V51.4859C73.3006 57.0087 68.8235 61.4859 63.3006 61.4859H60.8858M60.8858 35.5767V61.4859" stroke="black" stroke-width="6"/>
    <path fill-rule="evenodd" clip-rule="evenodd" d="M40.264 29.1411C39.0369 29.6332 37.6973 29.9039 36.2945 29.9039C35.526 29.9039 34.7765 29.8227 34.0541 29.6683C34.1231 29.9731 34.1595 30.2903 34.1595 30.6159C34.1595 32.9753 32.2478 34.8879 29.8896 34.8879C27.7472 34.8879 25.9733 33.3094 25.6666 31.2514C22.4169 30.7591 19.9264 27.9525 19.9264 24.5639C19.9264 21.1622 22.4364 18.347 25.7045 17.8709C26.3691 12.6113 30.8571 8.54395 36.2945 8.54395C38.6444 8.54395 40.817 9.30363 42.5802 10.5909C43.7062 9.75227 45.1019 9.25595 46.6135 9.25595C49.3706 9.25595 51.7423 10.9072 52.7944 13.2751C53.6473 12.9773 54.5602 12.8159 55.5092 12.8159C60.2257 12.8159 64.0491 16.8006 64.0491 21.7159C64.0491 26.6313 60.2257 30.6159 55.5092 30.6159C53.2451 30.6159 51.1868 29.6977 49.6584 28.199C48.4182 29.6767 46.558 30.6159 44.4785 30.6159C42.8847 30.6159 41.4198 30.0642 40.264 29.1411Z" fill="white"/>
    <path d="M40.264 29.1411L41.5121 27.5784L40.6014 26.851L39.5196 27.2848L40.264 29.1411ZM34.0541 29.6683L34.472 27.7125L31.4128 27.0588L32.1035 30.1099L34.0541 29.6683ZM25.6666 31.2514L27.6447 30.9565L27.4269 29.4952L25.9661 29.2739L25.6666 31.2514ZM25.7045 17.8709L25.9928 19.85L27.498 19.6307L27.6887 18.1216L25.7045 17.8709ZM42.5802 10.5909L41.401 12.2062L42.5921 13.0759L43.7749 12.1949L42.5802 10.5909ZM52.7944 13.2751L50.9667 14.0872L51.7146 15.7705L53.4537 15.1633L52.7944 13.2751ZM49.6584 28.199L51.0587 26.771L49.5157 25.258L48.1265 26.9133L49.6584 28.199ZM36.2945 31.9039C37.9566 31.9039 39.5486 31.5828 41.0084 30.9974L39.5196 27.2848C38.5252 27.6836 37.438 27.9039 36.2945 27.9039V31.9039ZM33.6362 31.6242C34.4951 31.8077 35.3847 31.9039 36.2945 31.9039V27.9039C35.6674 27.9039 35.0579 27.8377 34.472 27.7125L33.6362 31.6242ZM36.1595 30.6159C36.1595 30.1407 36.1063 29.6755 36.0048 29.2268L32.1035 30.1099C32.1399 30.2708 32.1595 30.4399 32.1595 30.6159H36.1595ZM29.8896 36.8879C33.3533 36.8879 36.1595 34.079 36.1595 30.6159H32.1595C32.1595 31.8716 31.1423 32.8879 29.8896 32.8879V36.8879ZM23.6884 31.5462C24.1389 34.5688 26.7412 36.8879 29.8896 36.8879V32.8879C28.7532 32.8879 27.8077 32.0499 27.6447 30.9565L23.6884 31.5462ZM17.9264 24.5639C17.9264 28.9555 21.1537 32.5906 25.367 33.2288L25.9661 29.2739C23.6802 28.9277 21.9264 26.9495 21.9264 24.5639H17.9264ZM25.4162 15.8918C21.1787 16.5091 17.9264 20.1554 17.9264 24.5639H21.9264C21.9264 22.169 23.694 20.1849 25.9928 19.85L25.4162 15.8918ZM36.2945 6.54395C29.836 6.54395 24.5096 11.3743 23.7203 17.6201L27.6887 18.1216C28.2287 13.8483 31.8781 10.5439 36.2945 10.5439V6.54395ZM43.7595 8.97558C41.6655 7.4468 39.0825 6.54395 36.2945 6.54395V10.5439C38.2063 10.5439 39.9685 11.1605 41.401 12.2062L43.7595 8.97558ZM46.6135 7.25595C44.6568 7.25595 42.8448 7.90001 41.3856 8.98694L43.7749 12.1949C44.5675 11.6045 45.547 11.2559 46.6135 11.2559V7.25595ZM54.6221 12.463C53.2609 9.39942 50.1899 7.25595 46.6135 7.25595V11.2559C48.5514 11.2559 50.2237 12.4149 50.9667 14.0872L54.6221 12.463ZM53.4537 15.1633C54.0983 14.9382 54.7885 14.8159 55.5092 14.8159V10.8159C54.3318 10.8159 53.1962 11.0164 52.1351 11.3869L53.4537 15.1633ZM55.5092 14.8159C59.044 14.8159 62.0491 17.8265 62.0491 21.7159H66.0491C66.0491 15.7747 61.4073 10.8159 55.5092 10.8159V14.8159ZM62.0491 21.7159C62.0491 25.6054 59.044 28.6159 55.5092 28.6159V32.6159C61.4073 32.6159 66.0491 27.6572 66.0491 21.7159H62.0491ZM55.5092 28.6159C53.8007 28.6159 52.2366 27.9261 51.0587 26.771L48.2581 29.627C50.1369 31.4693 52.6894 32.6159 55.5092 32.6159V28.6159ZM44.4785 32.6159C47.1741 32.6159 49.5865 31.3957 51.1903 29.4848L48.1265 26.9133C47.2499 27.9577 45.9419 28.6159 44.4785 28.6159V32.6159ZM39.0159 30.7039C40.5132 31.8997 42.415 32.6159 44.4785 32.6159V28.6159C43.3545 28.6159 42.3263 28.2286 41.5121 27.5784L39.0159 30.7039Z" fill="black"/>
    <ellipse cx="187.521" cy="44.5" rx="44.4785" ry="44.5" fill="white"/>
    <path d="M99.2861 36.396C97.4601 36.396 95.6891 36.154 93.9731 35.67C92.2791 35.164 90.9151 34.515 89.8811 33.723L91.6961 29.697C92.6861 30.423 93.8631 31.006 95.2271 31.446C96.5911 31.886 97.9551 32.106 99.3191 32.106C100.837 32.106 101.959 31.886 102.685 31.446C103.411 30.984 103.774 30.379 103.774 29.631C103.774 29.081 103.554 28.63 103.114 28.278C102.696 27.904 102.146 27.607 101.464 27.387C100.804 27.167 99.9021 26.925 98.7581 26.661C96.9981 26.243 95.5571 25.825 94.4351 25.407C93.3131 24.989 92.3451 24.318 91.5311 23.394C90.7391 22.47 90.3431 21.238 90.3431 19.698C90.3431 18.356 90.7061 17.146 91.4321 16.068C92.1581 14.968 93.2471 14.099 94.6991 13.461C96.1731 12.823 97.9661 12.504 100.078 12.504C101.552 12.504 102.993 12.68 104.401 13.032C105.809 13.384 107.041 13.89 108.097 14.55L106.447 18.609C104.313 17.399 102.179 16.794 100.045 16.794C98.5491 16.794 97.4381 17.036 96.7121 17.52C96.0081 18.004 95.6561 18.642 95.6561 19.434C95.6561 20.226 96.0631 20.82 96.8771 21.216C97.7131 21.59 98.9781 21.964 100.672 22.338C102.432 22.756 103.873 23.174 104.995 23.592C106.117 24.01 107.074 24.67 107.866 25.572C108.68 26.474 109.087 27.695 109.087 29.235C109.087 30.555 108.713 31.765 107.965 32.865C107.239 33.943 106.139 34.801 104.665 35.439C103.191 36.077 101.398 36.396 99.2861 36.396ZM135.114 17.982C137.336 17.982 139.096 18.642 140.394 19.962C141.714 21.26 142.374 23.218 142.374 25.836V36H137.226V26.628C137.226 25.22 136.929 24.175 136.335 23.493C135.763 22.789 134.938 22.437 133.86 22.437C132.65 22.437 131.693 22.833 130.989 23.625C130.285 24.395 129.933 25.55 129.933 27.09V36H124.785V26.628C124.785 23.834 123.663 22.437 121.419 22.437C120.231 22.437 119.285 22.833 118.581 23.625C117.877 24.395 117.525 25.55 117.525 27.09V36H112.377V18.246H117.294V20.292C117.954 19.544 118.757 18.972 119.703 18.576C120.671 18.18 121.727 17.982 122.871 17.982C124.125 17.982 125.258 18.235 126.27 18.741C127.282 19.225 128.096 19.94 128.712 20.886C129.438 19.962 130.351 19.247 131.451 18.741C132.573 18.235 133.794 17.982 135.114 17.982ZM154.149 17.982C156.899 17.982 159.011 18.642 160.485 19.962C161.959 21.26 162.696 23.229 162.696 25.869V36H157.878V33.789C156.91 35.439 155.106 36.264 152.466 36.264C151.102 36.264 149.914 36.033 148.902 35.571C147.912 35.109 147.153 34.471 146.625 33.657C146.097 32.843 145.833 31.919 145.833 30.885C145.833 29.235 146.449 27.937 147.681 26.991C148.935 26.045 150.86 25.572 153.456 25.572H157.548C157.548 24.45 157.207 23.592 156.525 22.998C155.843 22.382 154.82 22.074 153.456 22.074C152.51 22.074 151.575 22.228 150.651 22.536C149.749 22.822 148.979 23.218 148.341 23.724L146.493 20.127C147.461 19.445 148.616 18.917 149.958 18.543C151.322 18.169 152.719 17.982 154.149 17.982ZM153.753 32.799C154.633 32.799 155.414 32.601 156.096 32.205C156.778 31.787 157.262 31.182 157.548 30.39V28.575H154.017C151.905 28.575 150.849 29.268 150.849 30.654C150.849 31.314 151.102 31.842 151.608 32.238C152.136 32.612 152.851 32.799 153.753 32.799ZM172.273 20.589C172.889 19.731 173.714 19.082 174.748 18.642C175.804 18.202 177.014 17.982 178.378 17.982V22.734C177.806 22.69 177.421 22.668 177.223 22.668C175.749 22.668 174.594 23.086 173.758 23.922C172.922 24.736 172.504 25.968 172.504 27.618V36H167.356V18.246H172.273V20.589ZM193.502 35.142C192.996 35.516 192.369 35.802 191.621 36C190.895 36.176 190.125 36.264 189.311 36.264C187.199 36.264 185.56 35.725 184.394 34.647C183.25 33.569 182.678 31.985 182.678 29.895V22.602H179.939V18.642H182.678V14.319H187.826V18.642H192.248V22.602H187.826V29.829C187.826 30.577 188.013 31.16 188.387 31.578C188.783 31.974 189.333 32.172 190.037 32.172C190.851 32.172 191.544 31.952 192.116 31.512L193.502 35.142ZM108.658 63.988C109.978 64.406 111.012 65.11 111.76 66.1C112.508 67.068 112.882 68.267 112.882 69.697C112.882 71.721 112.09 73.283 110.506 74.383C108.944 75.461 106.656 76 103.642 76H91.6961V52.9H102.982C105.798 52.9 107.954 53.439 109.45 54.517C110.968 55.595 111.727 57.058 111.727 58.906C111.727 60.028 111.452 61.029 110.902 61.909C110.374 62.789 109.626 63.482 108.658 63.988ZM97.0091 56.926V62.371H102.322C103.642 62.371 104.643 62.14 105.325 61.678C106.007 61.216 106.348 60.534 106.348 59.632C106.348 58.73 106.007 58.059 105.325 57.619C104.643 57.157 103.642 56.926 102.322 56.926H97.0091ZM103.246 71.974C104.654 71.974 105.71 71.743 106.414 71.281C107.14 70.819 107.503 70.104 107.503 69.136C107.503 67.222 106.084 66.265 103.246 66.265H97.0091V71.974H103.246ZM121.483 60.589C122.099 59.731 122.924 59.082 123.958 58.642C125.014 58.202 126.224 57.982 127.588 57.982V62.734C127.016 62.69 126.631 62.668 126.433 62.668C124.959 62.668 123.804 63.086 122.968 63.922C122.132 64.736 121.714 65.968 121.714 67.618V76H116.566V58.246H121.483V60.589ZM147.879 67.189C147.879 67.255 147.846 67.717 147.78 68.575H134.349C134.591 69.675 135.163 70.544 136.065 71.182C136.967 71.82 138.089 72.139 139.431 72.139C140.355 72.139 141.169 72.007 141.873 71.743C142.599 71.457 143.27 71.017 143.886 70.423L146.625 73.393C144.953 75.307 142.511 76.264 139.299 76.264C137.297 76.264 135.526 75.879 133.986 75.109C132.446 74.317 131.258 73.228 130.422 71.842C129.586 70.456 129.168 68.883 129.168 67.123C129.168 65.385 129.575 63.823 130.389 62.437C131.225 61.029 132.358 59.94 133.788 59.17C135.24 58.378 136.857 57.982 138.639 57.982C140.377 57.982 141.95 58.356 143.358 59.104C144.766 59.852 145.866 60.93 146.658 62.338C147.472 63.724 147.879 65.341 147.879 67.189ZM138.672 61.876C137.506 61.876 136.527 62.206 135.735 62.866C134.943 63.526 134.459 64.428 134.283 65.572H143.028C142.852 64.45 142.368 63.559 141.576 62.899C140.784 62.217 139.816 61.876 138.672 61.876ZM179.496 58.246L173.061 76H168.111L164.118 64.978L159.993 76H155.043L148.641 58.246H153.492L157.683 70.258L162.039 58.246H166.395L170.619 70.258L174.942 58.246H179.496Z" fill="black"/>
</svg>
