<?xml version="1.0" encoding="utf-8"?>
<!-- Generator: Adobe Illustrator 18.0.0, SVG Export Plug-In . SVG Version: 6.00 Build 0)  -->
<!DOCTYPE svg PUBLIC "-//W3C//DTD SVG 1.1//EN" "http://www.w3.org/Graphics/SVG/1.1/DTD/svg11.dtd" [
	<!ENTITY ns_extend "http://ns.adobe.com/Extensibility/1.0/">
	<!ENTITY ns_ai "http://ns.adobe.com/AdobeIllustrator/10.0/">
	<!ENTITY ns_graphs "http://ns.adobe.com/Graphs/1.0/">
	<!ENTITY ns_vars "http://ns.adobe.com/Variables/1.0/">
	<!ENTITY ns_imrep "http://ns.adobe.com/ImageReplacement/1.0/">
	<!ENTITY ns_sfw "http://ns.adobe.com/SaveForWeb/1.0/">
	<!ENTITY ns_custom "http://ns.adobe.com/GenericCustomNamespace/1.0/">
	<!ENTITY ns_adobe_xpath "http://ns.adobe.com/XPath/1.0/">
]>
<svg version="1.1" xmlns:x="&ns_extend;" xmlns:i="&ns_ai;" xmlns:graph="&ns_graphs;"
	 xmlns="http://www.w3.org/2000/svg" xmlns:xlink="http://www.w3.org/1999/xlink" x="0px" y="0px" viewBox="0 0 1550 800"
	 enable-background="new 0 0 1550 800" xml:space="preserve">
<metadata>
	<sfw  xmlns="&ns_sfw;">
		<slices>
			<slice  width="869" height="800" x="58" sliceID="1317089281" y="-625"></slice>
		</slices>
		<sliceSourceBounds  width="869" height="800" x="58" y="-625" bottomLeftOrigin="true"></sliceSourceBounds>
		<optimizationSettings></optimizationSettings>
	</sfw>
</metadata>
<g id="Layer_3">
	<g>
		<g>
			<path fill="#262626" d="M986.6,315.5l-6.4,336.8c4.2,0.2,8.4,0.5,12.7,0.6L986.6,315.5z"/>
			<path fill="#262626" d="M1187.8,225c-3.5-12.4-20.2-32.6-47-50.8c-21.6-14.6-55.8-31.6-102.3-36.7v-16c0-5.6-5.5-9.1-12.5-10.8
				v-2c0-14.6-12.4-26.5-27.7-26.5H842.3c0.2,2,0.4,4,0.4,6l20.4,0.1c13.7,0.1,27.4,0,41.2,0.2l41.2,0.4c13.7,0.3,27.4,0.4,41.2,0.8
				c-13.7,0.4-27.4,0.5-41.2,0.8l-41.2,0.4c-13.7,0.2-27.4,0.1-41.2,0.2l-20.3,0.1c0,3.8-0.3,7.7-0.5,11.5h156c3.5,0,6.3,2.7,6.3,6
				v2c-7,1.7-12.5,5.2-12.5,10.8v15.1c-51.3,3.6-88.6,21.9-111.6,37.5c-26.8,18.1-43.5,38.3-47,50.8v382.5c0,2.8,0.6,5.6,1.5,8.3
				c-1,2.7-1.5,5.5-1.5,8.3v74.8c0,8.1,6.9,14.8,15.4,14.8c8.5,0,15.4-6.6,15.4-14.8V668c29.6,14.9,77.4,24.4,130.9,25.9v49.4
				c0,8.1,6.9,14.8,15.4,14.8c8.5,0,15.4-6.6,15.4-14.8v-49.4c53.6-1.5,101.3-11,130.9-25.9v30.8c0,8.1,6.9,14.8,15.4,14.8
				c8.5,0,15.4-6.6,15.4-14.8V624c0-2.8-0.6-5.6-1.5-8.3c1-2.7,1.5-5.5,1.5-8.3V225z M1010.6,104.7l1.6,16.8h-3.3L1010.6,104.7z
				 M1002,131.6c4,1.3,8.7,2,13.3,2c3.6,0,7.2-0.4,10.6-1.2c-7.9,3.5-16.2,11.1-17.3,20.3c-3.7-0.7-5.9-1.8-6.6-2.5V131.6z
				 M1177.9,698.8c0,2.9-2.5,5.3-5.5,5.3c-3.1,0-5.5-2.4-5.5-5.3v-47.5l-7.6,4.6c-27.5,16.6-80.5,27.6-138.3,28.7l-4.8,0.1v58.6
				c0,2.9-2.5,5.3-5.5,5.3c-3.1,0-5.5-2.4-5.5-5.3v-58.6l-4.8-0.1c-57.8-1.1-110.8-12.1-138.3-28.7l-7.6-4.6v47.5
				c0,2.9-2.5,5.3-5.5,5.3c-3.1,0-5.5-2.4-5.5-5.3v-70.5c8.9,9,23.8,17.1,43.9,23.8c33,10.9,76.9,16.9,123.4,16.9
				c46.5,0,90.4-6,123.4-16.9c20.1-6.6,35-14.7,43.9-23.8V698.8z M1177.9,607.5c0,25.1-67.2,51.9-167.3,51.9s-167.3-26.9-167.3-51.9
				V243.8c1.9,1.3,4.1,2.5,6.6,3.7v360.1c0,7.2,11.2,19.3,42.7,29.7c10.8,3.5,22.8,6.5,35.7,8.9V264.8c4.9,0.5,9.8,1,14.8,1.4v382.3
				c8.1,1.2,16.6,2.1,25.2,2.9V267.9c14.7,0.8,29.1,1.1,42.3,1.1c11.3,0,23.4-0.3,35.8-0.8v383.7c7.8-0.6,15.4-1.3,22.7-2.2V266.9
				c11.2-0.8,22.3-1.9,33.1-3.2v380.5c9.4-2,18.3-4.4,26.4-7.1c31.5-10.4,42.7-22.5,42.7-29.7V247.4c2.4-1.2,4.6-2.4,6.6-3.7V607.5z
				 M858.3,473.2l-0.2-40l0.2-40c0.2-13.3,0.3-26.7,0.7-40c0.6-26.7,1.5-53.4,3.2-80.1c1.7,26.7,2.6,53.4,3.2,80.1
				c0.4,13.3,0.5,26.7,0.7,40l0.2,40l-0.2,40c-0.1,6.8-2.4,96.2-3.9,120.1C860.7,569.6,858.4,480.1,858.3,473.2z M876.3,484.2
				c-0.2-8.7-0.3-17.4-0.4-26.2l-0.1-26.2l0.1-26.2c0.1-8.7,0.2-17.4,0.4-26.2c0.4-17.4,0.9-34.9,1.9-52.3c1,17.4,1.6,34.9,1.9,52.3
				c0.2,8.7,0.3,17.4,0.4,26.2l0.1,26.2l-0.1,26.2c-0.1,8.7-0.2,17.4-0.4,26.2c0,2.1-1.5,45.1-1.9,52.3
				C877.8,529.3,876.4,486.4,876.3,484.2z M1116.5,261.7c3.2-0.5,6.4-1,9.4-1.5l-4.7,303L1116.5,261.7z M1131.4,249.6
				c-32.2,6.5-75.1,10-120.8,10c-45.7,0-88.6-3.6-120.8-10c-36.7-7.4-46.5-16-46.5-19.9c0-6.6,12.6-27.3,42.9-47.8
				c21.9-14.8,57.3-32.1,105.9-35.7v4.6c0,0.6,0.1,1.2,0.2,1.8c-14.1,1.1-27.1,3.3-38.9,6.3c-1.2,0.3-2.4,0.7-3.6,1
				c-6,1.9-11.9,4-17.4,6.9c5.9-2.1,11.9-3.3,18-4.2c6.1-0.9,12.3-1.4,18.4-1.8c6.1-0.4,12.3-0.5,18.5-0.5c4.7,0,9.4,0.1,14.1,0.4
				c4.1,1.4,9,2.1,13.8,2.1c7.6,0,15.5-1.7,19.8-5.4c1.6,2,1.9,4.4,0.2,7.4c-9.9,17.3-56.3,29.1-79.6,29.1
				c-23.3,0-31.4-6.3-48.6-5.5c-12.8,0.6-24.7,5.9-34.9,12.5c-14.1,12.6-21.1,23.7-22.1,28c2.6,2.8,14.9,9.8,48.1,15.8
				c30.9,5.5,70.8,8.6,112.5,8.6c41.6,0,81.6-3,112.5-8.6c33.3-6,45.5-13,48.1-15.8c-1.4-5.9-13.9-24.4-40.9-42.5
				c-19.6-13.1-50.5-28.2-92.3-33.1c0.3-0.8,0.5-1.7,0.5-2.6V147c43.9,5,76.2,21,96.6,34.9c30.3,20.5,42.9,41.2,42.9,47.8
				C1177.9,233.6,1168.1,242.2,1131.4,249.6z M1051.7,233.6c-0.8,9.8-20.6,13.4-31.7,13c-11.1-0.4-18.9-7.5-15.6-15.6
				c3.3-8.1,5.3-12.8,15.6-15.5C1033.5,211.9,1052.5,223.8,1051.7,233.6z M1047.2,173c2.5-5.1,10.7-4.3,20.1-2.8
				c9.5,1.6,34.5,11.3,45.2,19.7c5,3.9,3.3,8.8-3.3,6.8c-6.6-2-27-10.5-47.7-12.7C1051.7,183,1044,179.7,1047.2,173z M981.3,231.5
				c-5.8,7.6-13.6,11.7-17.4,9c-3.8-2.6-2.2-11,3.6-18.6c5.8-7.6,13.6-11.7,17.4-9C988.8,215.5,987.2,223.9,981.3,231.5z
				 M912.3,198.2c-16.1,7.5-17.7,15.3-24.8,22c-4.2,4-9.4,6.5-12.5,4.7C864.1,218.8,894.4,198.2,912.3,198.2z"/>
			<path fill="#262626" d="M797.9,91.1c-4.6,0.4-9.4,1-12.8,3.8c-3.4,2.8-5.4,6.8-6.2,11.1c-0.4,2.2-0.6,4.3-0.5,6.6l0,6.9l0,13.8
				l0.1,49.1c-0.1,36.8-0.1,73.7-0.4,110.5l-0.5,55.2c-0.3,18.4-0.4,36.8-0.8,55.2c-0.4-18.4-0.5-36.8-0.8-55.2l-0.5-55.2
				c-0.3-36.8-0.2-73.7-0.4-110.5l0.1-49.1l0-13.8l0-6.9c0-2.3,0.2-4.8,0.6-7.1c0.9-4.7,3.2-9.5,7.2-12.7c4-3.3,9.2-4.2,14.2-4.6
				c2-0.2,3.6-0.2,5.5-0.2c0-1.7,0.2-4,0.1-5.8h-5.3c-15.3,0-27.7,11.9-27.7,26.5v579.2c0,5.4-4.6,9.8-10.3,9.8H744v-41.3
				c0-0.2,0-0.5-0.1-0.9c0,0,0-0.1,0-0.1c-0.1-0.3-0.1-0.5-0.3-0.8c0,0,0,0,0,0c-0.4-0.9-1.1-1.9-2.6-2.6l-15-10.2
				c16.4-10.3,25.1-22.1,25.1-34.6V307.4c0-3.5-1.6-6.9-4.8-10c-16.7-19.1-119.7-65.6-138.7-74.1V48.4c0-16.4-50.9-16.9-56.7-16.9
				s-56.7,0.5-56.7,16.9v174.9c-4.4,1.9-13.2,5.9-24.3,11.1l-4.7-8.8c9.1-5.8,11.6-9.8,9.3-14.3l0,0c-2.7-5-11.4-5-21.5-2.8l1.1-8.3
				c0.3-0.1,0.5-0.2,0.7-0.3c3.5-1.7,4.9-5.8,3-9.3s-6.1-4.8-9.6-3.1c-3.5,1.7-4.9,5.8-3,9.3c0.5,1,1.3,1.8,2.1,2.4l-1.5,11.1
				c-1.1,0.3-2.1,0.6-3.2,1l-3.2-6.1c-1.2-2.3-3.3-4-5.9-4.8c-2.6-0.8-5.3-0.6-7.7,0.6l-33.2,16.1c-2.4,1.2-4.2,3.2-5.1,5.6
				c-0.8,2.5-0.6,5.1,0.6,7.4l3.2,6c-0.9,0.6-1.8,1.3-2.7,1.9l-10.2-5.4c0-1-0.2-2.1-0.8-3.1c-1.8-3.4-6.1-4.8-9.6-3.1
				c-3.5,1.7-4.9,5.8-3,9.3c1.8,3.4,6.1,4.8,9.6,3.1c0.2-0.1,0.5-0.3,0.7-0.4l7.6,4c-9.5,7.9-12.9,13.7-10.5,18.2
				c1.3,2.5,3.4,3.8,6.8,3.8c2.7,0,6.2-0.8,10.7-2.4l5,9.4c-18.6,10.1-33.9,19.6-39.5,26c-3.2,3.1-4.8,6.5-4.8,10v299.9
				c0,12.3,8.4,23.9,24.2,34L359.1,652c-1.5,0.7-2.2,1.7-2.6,2.6c0,0,0,0,0,0c-0.1,0.3-0.2,0.6-0.3,0.8c0,0,0,0.1,0,0.1
				c-0.1,0.4-0.1,0.7-0.1,0.9v99c0,2.6,2.2,4.7,4.9,4.7h25.1c2.7,0,4.9-2.1,4.9-4.7v-70.6h148.3v3.1c0,16.7,14.2,30.3,31.7,30.3h138
				v37.3c0,2.6,2.2,4.7,4.9,4.7h25.1c2.7,0,4.9-2.1,4.9-4.7v-37.3h15.8c17.5,0,31.7-13.6,31.7-30.3V108.8c0-3.3,2.8-6,6.3-6h5.2
				c0.1-4.2,0.1-7.4,0.1-11.6C801.2,91.2,799.7,91,797.9,91.1z M504.1,48.9c2.5-2.9,19.7-7.9,46.9-7.9c27.2,0,44.4,5,46.9,7.9v177
				c-2.5,2.9-19.7,7.9-46.9,7.9c-27.2,0-44.4-5-46.9-7.9V48.9z M397.1,225.4l33.2-16.1c0,0,0.1,0,0.1,0c0.1,0,0.2,0.1,0.3,0.1l2.7,5
				c-6.9,2.6-13.1,5.3-17.3,7.3c-5.7,2.8-11.3,5.8-16.4,8.9l-2.6-5C396.9,225.6,397,225.4,397.1,225.4z M384.6,253.8
				c5.4-5.6,18-14.9,35.9-23.6c17.9-8.7,33.2-12.8,41.1-13.7c-8,5.4-26.1,14.2-37.9,19.9C412,242.1,393.9,250.8,384.6,253.8z
				 M451.8,242.8c-10.5,5-21.8,10.5-32.9,16.1c-0.6-1-1-1.9-1.2-2.3c-1.2-2.3-0.6-4.3,0.7-5.9l28-13.5c1.5,0.2,2.9,0.8,3.7,2.3
				C450.6,240.5,451.2,241.7,451.8,242.8z M407.2,264.9c-1.2,0.6-2.4,1.2-3.6,1.9l-3.8-7.1l3.6-1.7L407.2,264.9z M362.7,303.8
				l0.3-0.3c12.9-15,97.4-54.7,134.1-71.1c0.1,0.1,0.2,0.2,0.3,0.3c0.1,0.1,0.3,0.3,0.5,0.4c0.3,0.2,0.5,0.4,0.8,0.6
				c0.2,0.1,0.3,0.2,0.5,0.4c0.3,0.2,0.7,0.4,1,0.6c0.2,0.1,0.3,0.2,0.5,0.3c0.5,0.3,1,0.6,1.5,0.8c0,0,0.1,0,0.1,0
				c0.6,0.3,1.2,0.5,1.8,0.8c0.2,0.1,0.4,0.2,0.6,0.2c0.4,0.2,0.9,0.3,1.3,0.5c0.2,0.1,0.5,0.2,0.8,0.3c0.4,0.1,0.8,0.3,1.3,0.4
				c0.3,0.1,0.5,0.2,0.8,0.2c0.4,0.1,0.9,0.3,1.3,0.4c0.3,0.1,0.5,0.2,0.8,0.2c0.5,0.1,1,0.3,1.5,0.4c0.2,0.1,0.5,0.1,0.7,0.2
				c0.7,0.2,1.4,0.3,2.1,0.5c0,0,0.1,0,0.1,0c0.8,0.2,1.5,0.3,2.3,0.5c0.3,0,0.5,0.1,0.8,0.1c0.5,0.1,1,0.2,1.6,0.3
				c0.3,0,0.6,0.1,0.9,0.1c0.5,0.1,1,0.2,1.5,0.2c0.3,0,0.6,0.1,0.9,0.1c0.5,0.1,1,0.1,1.5,0.2c0.3,0,0.6,0.1,0.9,0.1
				c0.5,0.1,1.1,0.1,1.6,0.2c0.3,0,0.5,0.1,0.8,0.1c0.7,0.1,1.5,0.2,2.2,0.2c0,0,0.1,0,0.1,0c0.8,0.1,1.5,0.1,2.2,0.2
				c0.3,0,0.5,0,0.8,0.1c0.5,0,1,0.1,1.4,0.1c0.3,0,0.6,0,0.9,0.1c0.4,0,0.9,0.1,1.3,0.1c0.3,0,0.5,0,0.8,0.1c0.4,0,0.9,0.1,1.3,0.1
				c0.2,0,0.5,0,0.7,0c0.4,0,0.8,0,1.3,0.1c0.2,0,0.4,0,0.7,0c0.5,0,1.1,0,1.6,0.1c0.1,0,0.2,0,0.2,0c0.5,0,1.1,0,1.6,0.1
				c0.2,0,0.3,0,0.5,0c0.3,0,0.7,0,1,0c0.2,0,0.4,0,0.6,0c0.3,0,0.5,0,0.7,0c0.2,0,0.3,0,0.5,0c0.3,0,0.5,0,0.7,0c0.1,0,0.2,0,0.3,0
				c0.2,0,0.4,0,0.6,0c0.1,0,0.2,0,0.3,0c0.2,0,0.4,0,0.6,0s0.4,0,0.6,0c0.1,0,0.2,0,0.3,0c0.2,0,0.4,0,0.6,0c0.1,0,0.2,0,0.3,0
				c0.2,0,0.5,0,0.7,0c0.2,0,0.3,0,0.5,0c0.2,0,0.5,0,0.7,0c0.2,0,0.4,0,0.6,0c0.3,0,0.6,0,1,0c0.2,0,0.3,0,0.5,0c0.5,0,1,0,1.6-0.1
				c0.1,0,0.1,0,0.2,0c0.5,0,1.1,0,1.6-0.1c0.2,0,0.4,0,0.6,0c0.4,0,0.8,0,1.3-0.1c0.2,0,0.5,0,0.7,0c0.4,0,0.8,0,1.3-0.1
				c0.3,0,0.5,0,0.8-0.1c0.4,0,0.9-0.1,1.3-0.1c0.3,0,0.6,0,0.9-0.1c0.5,0,0.9-0.1,1.4-0.1c0.3,0,0.5,0,0.8-0.1
				c0.7-0.1,1.5-0.1,2.2-0.2c0,0,0.1,0,0.1,0c0.7-0.1,1.4-0.1,2.2-0.2c0.3,0,0.5-0.1,0.8-0.1c0.5-0.1,1.1-0.1,1.6-0.2
				c0.3,0,0.6-0.1,0.9-0.1c0.5-0.1,1-0.1,1.5-0.2c0.3,0,0.6-0.1,0.9-0.1c0.5-0.1,1-0.1,1.5-0.2c0.3,0,0.6-0.1,0.9-0.1
				c0.5-0.1,1.1-0.2,1.6-0.3c0.3,0,0.5-0.1,0.8-0.1c0.8-0.1,1.5-0.3,2.3-0.5c0,0,0.1,0,0.1,0c0.7-0.1,1.4-0.3,2.1-0.5
				c0.3-0.1,0.5-0.1,0.7-0.2c0.5-0.1,1-0.2,1.5-0.4c0.3-0.1,0.5-0.1,0.8-0.2c0.5-0.1,0.9-0.3,1.3-0.4c0.3-0.1,0.5-0.2,0.8-0.2
				c0.4-0.1,0.9-0.3,1.3-0.4c0.3-0.1,0.5-0.2,0.7-0.3c0.4-0.2,0.9-0.3,1.3-0.5c0.2-0.1,0.4-0.2,0.6-0.2c0.6-0.3,1.2-0.5,1.8-0.8
				c0,0,0.1,0,0.1,0c0.5-0.3,1.1-0.5,1.5-0.8c0.2-0.1,0.3-0.2,0.5-0.3c0.3-0.2,0.7-0.4,1-0.6c0.2-0.1,0.3-0.2,0.5-0.4
				c0.3-0.2,0.6-0.4,0.8-0.6c0.2-0.1,0.3-0.3,0.5-0.4c0.1-0.1,0.2-0.2,0.3-0.3c36.6,16.3,121.2,56,134.1,71.1l0.3,0.3
				c1,0.9,2.1,2.3,2.1,3.5c0,4.1-11.2,13.2-53.2,21c-36.6,6.8-85.3,10.5-137.1,10.5c-51.9,0-100.6-3.7-137.1-10.5
				c-42-7.8-53.2-16.8-53.2-21C360.6,306.1,361.7,304.8,362.7,303.8z M719.9,477.4c0,20.5-0.4,40.9-1.1,61.4
				c-0.7,20.5-1.8,40.9-3.8,61.4c-2.1-20.5-3.1-40.9-3.8-61.4c-0.7-20.5-1.1-40.9-1.1-61.4c0.1-10.2,0.1-20.5,0.3-30.7
				c0.3-10.2,0.4-20.5,0.8-30.7c0.7-20.5,1.8-40.9,3.8-61.4c2,20.5,3.1,40.9,3.8,61.4c0.5,10.2,0.6,20.5,0.8,30.7
				C719.8,457,719.8,467.2,719.9,477.4z M386.2,675.4c-2.7,0-4.9,2.1-4.9,4.7v70.6H366v-89.5H422c23.8,6.9,51.7,11.7,81.7,14.2
				H386.2z M360.6,607.3v-286c1.9,1.3,4.1,2.5,6.6,3.6v282.4c0,7.8,8.3,16.7,23.8,25V333c4.4,1.1,9.1,2.2,14,3.2v302.5
				c6.8,2.8,14.5,5.4,23,7.8V340.2c37,5.4,81.2,7.9,118.1,8.1l4.9,280.2l4.9-280.2c3.4,0,6.9-0.1,10.4-0.1v313.2
				c6.2-0.2,12.2-0.4,18.1-0.7V347.7c11.9-0.4,24-1,36.2-1.9v311.4c5.7-0.7,11.2-1.6,16.5-2.5l4.9-296.3l4.9,294.5
				c56-11,88.1-30.4,88.1-45.8V324.9c2.4-1.2,4.6-2.4,6.6-3.6v286c0,29.3-76.5,60.6-190.3,60.6S360.6,636.5,360.6,607.3z
				 M631.1,697.8H571c-5.7,0-10.3-4.4-10.3-9.8v-3.1h70.4V697.8z M709,697.8h-56.5v-12.9H709V697.8z M734.2,750.8h-15.3v-70.6
				c0-2.6-2.2-4.7-4.9-4.7H598.1c30-2.5,57.9-7.3,81.7-14.2h54.3V750.8z"/>
			<path fill="#262626" d="M1083.4,669.2c-13.2,1.8-26.4,3.1-39.6,3.9c-13.3,0.8-26.6,1.1-39.8,0.9c-6.6,0-13.3-0.3-19.9-0.5
				c-6.6-0.4-13.3-0.8-19.9-1.4c-13.2-1.1-26.4-2.8-39.5-5.1c-13-2.4-26-5.3-38.6-9.4c-12.6-3.9-24.9-9.2-35.5-17
				c5,4.3,10.5,7.9,16.4,11c1.4,0.9,3,1.5,4.5,2.2c1.5,0.7,3,1.5,4.5,2.1c3.1,1.2,6.1,2.6,9.3,3.8c12.5,4.6,25.5,8.1,38.7,10.8
				c13.1,2.7,26.4,4.5,39.8,5.9c6.7,0.7,13.4,1.1,20.1,1.6c6.7,0.3,13.4,0.6,20.1,0.7c26.8,0.3,53.7-1.4,80.2-5.8
				c13.2-2.2,26.3-5.1,39.1-9c3.2-0.9,6.3-2.1,9.5-3.2c3.1-1.2,6.3-2.3,9.3-3.6c6.2-2.5,12.1-5.5,17.8-8.9
				c-11.9,5.9-24.4,10.3-37.3,13.5C1109.6,664.9,1096.5,667.3,1083.4,669.2z"/>
			<path fill="#262626" d="M449,649.6l-6.4-278.7l-6.4,275.7C440.3,647.7,444.6,648.7,449,649.6z"/>
			<path fill="#262626" d="M408.6,318.8c4.2,0.9,8.8,1.7,13.9,2.6c2.9,0.5,5.9,0.9,9,1.4c25.1-28.2,63.1-64.6,78.9-79.5
				c-1.7-0.4-3.9-1-6.3-1.8C480.2,258.8,433.2,296.5,408.6,318.8z"/>
			<path fill="#262626" d="M368,305.1c2.9,2.2,10.1,5.9,24.3,9.8c20.9-16.1,68.1-51.9,105.9-76c-0.8-0.4-1.6-0.8-2.3-1.3
				c-11.2,5.1-32.9,15-55.4,26C384.2,291.1,371.1,301.7,368,305.1z"/>
			<path fill="#262626" d="M553.5,330.4c6.7,0,13.3-0.1,19.9-0.2c-3.7-17.5-13-62-17.1-82.9c-1.9,0-3.8,0.1-5.7,0.1
				c-1.2,0-2.4,0-3.7,0L553.5,330.4z"/>
			<path fill="#262626" d="M590.1,329.6c5.3-0.2,10.4-0.4,15.6-0.7c-3.9-11.1-7.8-22.2-11.7-33.2l-7.3-20.1
				c-2.5-6.7-4.9-13.4-7.6-20c3.5,6.3,6.7,12.7,9.9,19.1l9.6,19.2c5.6,11.4,11.2,22.9,16.8,34.4c23.3-1.5,44.9-3.9,63.6-7
				c35.3-5.9,50-12.7,54.5-16.2c-3.1-3.4-16.2-14-72.5-41.6c-22.5-11-44.1-20.9-55.3-25.9c-5.5,3.5-12.3,5.1-15.5,5.8
				c-6.9,1.6-15.3,2.8-24.4,3.4L590.1,329.6z M633.9,261.7c3.9,2.1,7.7,4.4,11.5,6.7l11.3,6.9l11.2,7.1c3.7,2.4,7.4,4.8,11,7.3
				c7.3,4.9,14.5,10,21.5,15.5c-8.1-3.8-15.9-8.1-23.6-12.4c-3.9-2.1-7.7-4.4-11.5-6.7l-11.3-6.9l-11.2-7.1c-3.7-2.4-7.4-4.8-11-7.3
				c-7.3-4.9-14.5-10-21.5-15.5C618.4,253.1,626.2,257.4,633.9,261.7z"/>
			<path fill="#262626" d="M472.1,297l26.8-34L469,294.5c-9.2,9.8-18.4,19.6-27.5,29.5c2.9,0.4,5.9,0.7,8.9,1.1
				C457.5,315.8,464.9,306.4,472.1,297z"/>
			<path fill="#262626" d="M591,220.1V50.2c-2-0.8-5.3-1.7-9.5-2.6l-3.2,160.2L575,46.6c-6.6-0.9-14.7-1.5-24.3-1.5v180.2
				C571.3,225.3,585.5,222.3,591,220.1z"/>
			<path fill="#262626" d="M519.3,47.8c-4,0.8-7,1.7-8.9,2.4v169.9c1.9,0.8,4.9,1.6,8.9,2.4V47.8z"/>
			<path fill="#262626" d="M538.4,178.1c0.5,10.9,1.2,21.8,2.6,32.7c1.4-10.9,2.1-21.8,2.6-32.7c0.5-10.9,0.7-21.8,0.7-32.7
				c0-10.9-0.3-21.8-0.7-32.7c-0.5-10.9-1.2-21.8-2.6-32.7c-1.4,10.9-2.1,21.8-2.6,32.7c-0.5,10.9-0.7,21.8-0.7,32.7
				C537.7,156.3,537.9,167.2,538.4,178.1z"/>
			<polygon fill="#262626" points="802.7,82.2 842.8,82.2 842.8,88.2 802.9,88 			"/>
			<polygon fill="#262626" points="802.7,91.1 842.8,91.2 842.8,102.7 802.9,102.7 			"/>
		</g>
	</g>
	<rect id="_x3C_Slice_x3E_" x="333" fill="none" width="869" height="800"/>
</g>
<g id="Layer_2">
</g>
</svg>
